<?xml version="1.0" encoding="UTF-8"?>
<svg id="Layer_1" xmlns="http://www.w3.org/2000/svg" version="1.1" viewBox="0 0 120 60">
  <!-- Generator: Adobe Illustrator 29.8.1, SVG Export Plug-In . SVG Version: 2.1.1 Build 2)  -->
  <defs>
    <style>
      .st0 {
        fill: #1ed760;
      }
    </style>
  </defs>
  <path class="st0" d="M22.12,11.83C12.07,11.83,3.95,19.97,3.95,30s8.14,18.17,18.17,18.17,18.17-8.14,18.17-18.17-8.14-18.17-18.17-18.17h0ZM30.46,38.05c-.33.54-1.02.69-1.56.37-4.28-2.6-9.64-3.19-15.98-1.76-.61.13-1.22-.24-1.35-.85s.24-1.22.85-1.35c6.93-1.58,12.87-.91,17.65,2.02.54.33.72,1.02.39,1.56h0ZM32.67,33.1c-.41.67-1.28.87-1.95.48-4.89-3-12.33-3.86-18.11-2.13-.76.22-1.54-.19-1.76-.93-.22-.76.19-1.54.95-1.76,6.6-2,14.81-1.04,20.43,2.4.65.39.85,1.26.43,1.93h0ZM32.87,27.94c-5.86-3.47-15.52-3.8-21.12-2.11-.9.28-1.85-.24-2.13-1.13s.24-1.84,1.13-2.13c6.43-1.95,17.11-1.56,23.84,2.43.8.48,1.06,1.52.59,2.32-.43.83-1.5,1.09-2.3.61h0Z"/>
  <g>
    <path class="st0" d="M49.75,29.46c-3.1-.73-3.63-1.26-3.63-2.35,0-1.03.96-1.71,2.39-1.71s2.78.53,4.23,1.6c.04.04.11.04.15.04.06,0,.11-.04.13-.09l1.52-2.14c.06-.09.04-.21-.04-.28-1.73-1.39-3.68-2.05-5.94-2.05-3.33,0-5.66,2.01-5.66,4.87,0,3.08,2.01,4.17,5.49,5,2.95.68,3.46,1.26,3.46,2.27,0,1.13-1,1.84-2.63,1.84-1.8,0-3.27-.6-4.92-2.03-.04-.04-.11-.04-.15-.04-.06,0-.11.02-.13.06l-1.69,2.01c-.06.09-.06.21.02.28,1.92,1.71,4.28,2.61,6.82,2.61,3.59,0,5.92-1.97,5.92-5-.04-2.57-1.58-3.98-5.34-4.89ZM63.19,26.4c-1.56,0-2.84.62-3.89,1.88v-1.41c0-.11-.09-.19-.19-.19h-2.76c-.11,0-.19.09-.19.19v15.73c0,.11.09.19.19.19h2.76c.11,0,.19-.09.19-.19v-4.96c1.05,1.18,2.33,1.75,3.89,1.75,2.89,0,5.84-2.22,5.84-6.5-.02-4.25-2.95-6.5-5.84-6.5ZM65.8,32.9c0,2.18-1.35,3.68-3.25,3.68s-3.31-1.58-3.31-3.68,1.43-3.68,3.31-3.68,3.25,1.54,3.25,3.68ZM76.53,26.4c-3.72,0-6.65,2.86-6.65,6.54s2.91,6.48,6.6,6.48,6.67-2.86,6.67-6.52-2.91-6.5-6.63-6.5ZM76.53,36.6c-1.99,0-3.48-1.6-3.48-3.7s1.45-3.66,3.44-3.66,3.51,1.6,3.51,3.72c-.02,2.09-1.47,3.63-3.46,3.63ZM91.11,26.66h-3.04v-3.12c0-.11-.09-.19-.19-.19h-2.76c-.11,0-.19.09-.19.19v3.12h-1.33c-.11,0-.19.09-.19.19v2.37c0,.11.09.19.19.19h1.33v6.16c0,2.48,1.24,3.74,3.68,3.74.98,0,1.82-.21,2.59-.64.06-.04.11-.11.11-.17v-2.27c0-.06-.04-.13-.09-.17-.06-.04-.13-.04-.19,0-.53.28-1.05.38-1.62.38-.9,0-1.28-.41-1.28-1.3v-5.71h3.04c.11,0,.19-.09.19-.19v-2.37c-.02-.13-.11-.21-.24-.21ZM101.73,26.68v-.38c0-1.13.43-1.62,1.39-1.62.58,0,1.05.11,1.56.28.06.02.13,0,.19-.02.04-.04.09-.11.09-.17v-2.33c0-.09-.06-.17-.15-.19-.56-.17-1.24-.32-2.31-.32-2.57,0-3.91,1.43-3.91,4.17v.58h-1.33c-.11,0-.21.09-.21.19v2.39c0,.11.09.19.21.19h1.33v9.49c0,.11.09.19.19.19h2.76c.11,0,.19-.09.19-.19v-9.49h2.59l3.95,9.49c-.45,1-.9,1.2-1.5,1.2-.49,0-1-.15-1.52-.43-.04-.02-.11-.02-.17-.02-.04.02-.11.06-.13.11l-.94,2.05c-.04.11,0,.21.09.26.98.53,1.86.75,2.95.75,2.05,0,3.16-.96,4.17-3.51l4.81-12.4c.02-.06.02-.13-.02-.19s-.11-.09-.17-.09h-2.89c-.09,0-.17.06-.19.13l-2.95,8.42-3.23-8.44c-.02-.09-.11-.13-.19-.13h-4.66v.04ZM95.58,26.66h-2.76c-.11,0-.19.09-.19.19v12.08c0,.11.09.19.19.19h2.76c.11,0,.19-.09.19-.19v-12.06c.02-.13-.09-.21-.19-.21Z"/>
    <circle class="st0" cx="94.21" cy="23.15" r="1.99"/>
  </g>
</svg>