<svg width="41" height="41" viewBox="0 0 41 41" fill="none" xmlns="http://www.w3.org/2000/svg">
<rect y="40.4108" width="40.4108" height="40.4108" rx="20.2054" transform="rotate(-90 0 40.4108)" fill="#111111"/>
<path d="M23.986 11.0899L22.4682 9.57203M23.986 11.0899L17.2856 17.7903C17.1625 17.9134 17.0017 17.9917 16.8289 18.0127L14.0756 18.3474C13.431 18.4257 13.1597 19.2121 13.6188 19.6713L17.5474 23.5998M23.986 11.0899L30.0574 17.1612M31.5752 18.679L30.0574 17.1612M30.0574 17.1612L23.357 23.8616C23.2339 23.9847 23.1556 24.1455 23.1345 24.3183L22.7998 27.0716C22.7215 27.7162 21.9351 27.9875 21.476 27.5284L17.5474 23.5998M17.5474 23.5998L12.3796 28.7676" stroke="#1ED760" stroke-width="2" stroke-linecap="round" stroke-linejoin="round"/>
</svg>
